<svg height="71" viewBox="0 0 105 71" width="105" xmlns="http://www.w3.org/2000/svg" xmlns:xlink="http://www.w3.org/1999/xlink"><linearGradient id="a"><stop offset="0" stop-color="#48e3ee"/><stop offset="1" stop-color="#244091"/></linearGradient><linearGradient id="b" x1="3.663173%" x2="50%" xlink:href="#a" y1="15.704625%" y2="82.167458%"/><linearGradient id="c" x1="3.663173%" x2="50%" xlink:href="#a" y1="24.014357%" y2="74.373319%"/><linearGradient id="d" x1="3.663173%" x2="50%" xlink:href="#a" y1="30.264796%" y2="68.510699%"/><linearGradient id="e" x1="3.663173%" x2="50%" xlink:href="#a" y1="35.082787%" y2="63.991648%"/><linearGradient id="f" x1="3.663173%" x2="110.805805%" xlink:href="#a" y1="-2.271631%" y2="119.926759%"/><linearGradient id="g" x1="3.663173%" x2="110.805805%" xlink:href="#a" y1="-3.30756%" y2="121.312581%"/><g fill="none"><path d="m47.452645 55.880973c-6.9764247-2.7488009-11.8253769-8.2420059-14.6225391-16.6774694-2.0216146-8.3300747-.877039-15.3402787 3.3959328-21.2317405 4.4379714-6.1189588 9.3046477-9.92558844 14.5995748-11.51385305 4.2998119-1.28592863 9.6221575-1.28592863 15.9710936.0517034 6.105325 1.28630658 12.3128713 5.66028735 18.5797985 13.23328685l.1289164.1440597 15.059076 15.5720088 3.594234-3.4758422-14.9923834-15.503045c-6.9088994-8.32735376-14.0076941-13.31848943-21.338841-14.86305951-7.1095466-1.49788202-13.257051-1.49788202-18.4364933.05111543-6.4344961 1.93008848-12.1711853 6.41722703-17.2124851 13.36803938-5.1902491 7.1561796-6.5713743 15.7080534-4.1815973 25.4522177l.0532664.1858166c3.2384767 9.8434232 9.1204891 16.5296573 17.5695283 19.8586872 8.5587334 3.3722509 16.0960887 2.4146117 22.2008795-2.9414753l.12678-.1192944 7.680866-7.7489489-3.5510996-3.5198993-7.6175679 7.6850897c-4.612622 4.0089977-10.1464105 4.6957393-17.0069396 1.9926028z" fill="url(#b)"/><path d="m61.6727308 44.4284955c-3.7419895 4.4077757-10.3219927 5.0133315-14.8055893 1.3625715-4.2379625-3.4507527-6.4890763-8.1661851-6.7882196-14.3281564.1001725-5.2318401 1.9459377-9.3633418 5.5827581-12.5669359 8.2694276-7.2843547 20.7862003-6.8504161 28.5313036.9891394l21.0222141 21.2785974 3.5568973-3.5140407-21.0222148-21.278598c-9.6078318-9.7250002-25.1349377-10.26330268-35.3931952-1.227032-4.7314785 4.1678542-7.1730148 9.6649522-7.2784773 16.3163248l.0023049.1540388c.3473551 7.5825631 3.2356559 13.6619171 8.6295849 18.0539134 6.5939432 5.3691056 16.2710329 4.4785257 21.7742847-2.0038813l3.7584605-4.4270889-8.3190256-8.497434-3.5728418 3.497828 5.1294116 5.2394162z" fill="url(#c)"/><path d="m51.9334489 39.9782089c-4.6698139-6.227717-4.6698139-10.8700301-.3040851-14.9015396 4.5558188-4.2070471 11.6176919-4.0767152 16.015173.2955715l22.1197836 21.9930963 3.5253657-3.5456729-22.1197853-21.993098c-6.2969029-6.2608263-16.4090367-6.447453-22.9326671-.4232405-6.4081937 5.917613-6.4081937 13.433974-.3040851 21.5744828z" fill="url(#d)"/><path d="m53.915255 70.2950968c11.0510222 0 20.4691786-5.2022396 28.0884073-15.4131394l-4.0073246-2.9902089c-6.7157411 9.000092-14.6874148 13.4033483-24.0810827 13.4033483-9.4390121 0-17.9400817-4.4494593-25.6199068-13.5233359l-.133127-.1452723-24.38708257-24.5917563-3.55027726 3.5207289 24.31835713 24.5224539c8.5646026 10.0869071 18.3938879 15.2171817 29.3720365 15.2171817z" fill="url(#e)"/><path d="m6.53560029 24.8676818 15.64795751 15.4057709 3.5078537-3.562999-15.6479574-15.4057709z" fill="url(#f)"/><path d="m12.6697177 18.7597202 9.5 9.5 3.5355339-3.5355339-9.5-9.5z" fill="url(#g)"/></g></svg>